<svg id="a9107981-19d5-4994-bef6-1a3a792a1a0a" data-name="a882082f-d71d-4c22-b27b-a49492ea4eda" xmlns="http://www.w3.org/2000/svg" viewBox="0 0 702.04 358.27"><defs><style>.adeb7929-5ac5-41c6-be50-d8a92c696236{fill:#fff;}</style></defs><path class="adeb7929-5ac5-41c6-be50-d8a92c696236" d="M204.32,240.44c2.8-1.81,6.19-3.1,8.31-5.51,5.36-6.09,12.46-9.77,18.81-14.45,7.32-5.41,15-10.37,22.81-15.06A180.87,180.87,0,0,1,275,194.6c3.51-1.52,7.75-1.88,11.65-1.85,4.84,0,6.78,3.52,4.66,7.93a15.15,15.15,0,0,1-4.43,5.15c-8.66,6.62-17.55,12.95-26.2,19.59-9.45,7.26-18.84,14.59-28,22.19-4.43,3.67-8.27,8-12.37,12.1l.48,1a24.62,24.62,0,0,0,4.59-1.57c3.58-2.07,7.12-4.25,10.51-6.61,9.24-6.42,18.29-13.11,27.63-19.36a42.17,42.17,0,0,1,11.19-5.28c7.55-2.24,11.21,1,10.65,8.73-.25,3.47-.75,6.93-.93,10.4-.2,3.77,1.14,7,4.58,8.77,3.63,1.85,6.93.85,10.09-1.75,8-6.61,16.37-12.85,24.3-19.57,5.29-4.49,10.11-9.52,15.09-14.37a7.39,7.39,0,0,0,2.33-7.63,5.57,5.57,0,0,1,1.69-4.55c5.54-4.64,11.84-8.17,19-9.28a15.42,15.42,0,0,1,9.09,1.4,70.22,70.22,0,0,1,13.36,9.46c8.15,7.34,9.93,21.84,4.56,32.29-2.5,4.87-5,9.77-7.23,14.76-.56,1.23-.31,2.84-.43,4.27a26.24,26.24,0,0,0,4.68-.39A11.93,11.93,0,0,0,389,258.6c11.34-7.75,22.45-15.83,32.17-25.58a47.3,47.3,0,0,0,8.53-10.92c4.48-8.41,10.92-14.9,18-21,6.62-5.76,13-11.78,19.51-17.68a29.25,29.25,0,0,1,16.38-7.78c3.63-.45,7.25-.35,9.36,3.07,2.31,3.74,2.8,8,.32,11.81a43.69,43.69,0,0,1-7.19,8.84c-11.44,10.32-23,20.53-34.71,30.52-7.34,6.25-8.92,16.55-3.07,24.37,2.79,3.71,5.72,7.33,8.79,10.8,3.72,4.19,4.92,4.43,9,.82,9-8,17.8-16.3,26.72-24.43a18.17,18.17,0,0,1,3.63-2.59c6.38-3.5,12.78-6.71,17.77-12.48,3.15-3.63,7.89-5.93,12-8.65,10.68-7,21.25-14.19,32.21-20.73,5.5-3.28,11.71-5.4,17.68-7.84a17.37,17.37,0,0,1,5.4-.8c2.93-.19,6,.15,7.3,3.11,1.36,3.22-.28,6.13-2.56,8.56a7.5,7.5,0,0,1-1.19.91c-11.35,8.3-23.48,15.74-33.84,25.13-10.66,9.66-23.48,16.81-32.53,28.26a31.45,31.45,0,0,0-1.6,2.76,47.08,47.08,0,0,0,5.49-2.17c3-1.73,6-3.51,8.87-5.49,9.78-6.8,19.36-13.87,29.28-20.45a43.05,43.05,0,0,1,12.15-5.47c6.56-1.8,9.83,1.18,9.56,8-.14,3.64-.48,7.28-.8,10.92-.36,4,.87,7.2,4.56,9.15s6.94.78,10-1.77c8.49-7,16.59-14.36,26.57-19.6,6.87-3.62,12.31-9.9,18.55-14.78,10.06-7.85,20.11-15.71,30.45-23.17,4.59-3.32,10.14-3,15.33-1.1,4.25,1.52,6.2,4.81,5.34,9.53-2.24,12.22-4.79,24.37-10.33,35.68a172.48,172.48,0,0,0-8.78,21.3,25.38,25.38,0,0,0,4.89-1.93c5.56-3.62,11.07-7.33,16.44-11.21,2.43-1.76,3.46-1.24,4.75,1.31,3.9,7.73,4,7.69-2.62,12.81a32.65,32.65,0,0,1-3.37,2.1c-8.52,5.13-16.91,10.48-25.59,15.3-7,3.89-13.3,9.21-21.57,10.73-3.36.62-4.52.14-6.17-3.29-3.93-8.21-3.3-16.75-3.6-25.28-.15-4.15,2.57-6.43,5.89-7.83,3.1-1.31,6.54-3.18,9.44.6,1.48,1.93,2.87,1.08,3.25-.57q3.07-13.29,5.72-26.66c.48-2.47-1.4-3.33-3.47-2.77a16.41,16.41,0,0,0-4.86,2.43c-12.5,8.73-25.09,17.35-37.39,26.36-7.05,5.16-13.41,11.28-20.49,16.4a29.64,29.64,0,0,1-21.67,5.69c-9.74-1.24-14.9-6.43-15.87-16.16-.11-1.15-.09-2.33-.3-3.46-.37-1.95-1.19-2.47-3-1.14-8.2,5.9-16.69,11.42-24.69,17.58a91.7,91.7,0,0,1-25.87,13.66c-3.19,1.13-7.3.85-10.68,0-5.91-1.47-8.16-8.12-5.56-14.79a18.12,18.12,0,0,0,1.67-4.8c-5.08,5.35-10.2,10.65-15.2,16.12-2.14,2.34,0,3.92,1.51,5.38,5.64,5.35,8.79,11.95,10.35,19.48a27.42,27.42,0,0,1-5.67,23.41,86,86,0,0,1-43.06,29.1,41.65,41.65,0,0,1-24.1.39c-5.46-1.58-7-4-7.8-9.56-2.16-14.43,4.49-25.44,13.57-35.38,5.24-5.73,11.12-10.87,16.72-16.26,1.43-1.38,2.9-2.72,4.36-4.07,2-1.84,1.86-3.63.08-5.58-2.91-3.18-5.67-6.49-8.58-9.67-5.26-5.73-9.42-12.06-10.84-19.84-.47-2.59-1.17-3.31-3.39-1.35-13.53,11.93-30.16,18.57-45.88,26.77a18.89,18.89,0,0,1-14,1.86c-5-1.29-6.55-4.32-4.3-9,3-6.26,6.95-12.13,9.49-18.57,2.34-5.93,3.64-12.34,4.83-18.65a14.92,14.92,0,0,0-1.13-7.75c-1.74-4.4-6.29-6-10.22-3.44-5.1,3.36-9.79,7.33-14.65,11-7.61,5.83-15.25,11.63-22.81,17.52-5.87,4.57-11.5,9.45-17.49,13.84-7.42,5.45-15.63,8.76-25.13,7.46-9.28-1.26-14.19-6.32-15.26-15.6-.23-2.06-.6-4.1-1.06-7.12-10,7.29-19,14.46-28.63,20.56a202.93,202.93,0,0,1-25.11,13c-5.22,2.36-12.28,0-14.86-3.93s-1.78-10.64,2.13-15.19c.43-.51.8-1.06,1.25-1.55a8.67,8.67,0,0,0-.17-12.27.93.93,0,0,0-.14-.14c-1.57-1.41-6.13-.72-7.47,1.13-7.49,10.31-14.61,20.92-22.6,30.83-5.69,7.07-12.46,13.3-18.92,19.72-3.52,3.5-7.34,6.69-11.12,9.9-15,12.69-31.65,21.87-51.38,24.29a67.55,67.55,0,0,1-41.41-7.78,89.44,89.44,0,0,1-15.39-10.08c-5.8-5-10-11.47-13.24-18.43-6.14-13.08-9.33-27-10.54-41.25A257.08,257.08,0,0,1,.07,234.43c.23-10.34,1.32-20.69,2.42-31q1.95-18.21,4.64-36.35c.9-6,2.6-12,3.92-17.94.92-4.19,1.77-8.39,2.7-12.57,1.51-6.76,2.87-13.56,4.64-20.25,1.9-7.17,4.19-14.23,6.32-21.34.15-.47.41-.91.55-1.39,2.34-8.46,4.56-17,7.06-25.36,1.23-4.12,2.94-8.1,4.51-12.12,5-12.81,9.35-25.94,15.31-38.3C56.49,8.81,63.56,1.56,74.54,0,77.26-.35,78.69.47,80,3a31.23,31.23,0,0,1,3.15,18.73c-1.28,9.94-4.66,19.19-8,28.53-2.61,7.33-4.76,14.83-7,22.3s-4.23,15.32-6.5,22.93c-2.41,8.11-5.17,16.12-7.49,24.26-2,7.15-3.62,14.43-5.49,21.63-1.75,6.71-3.81,13.33-5.35,20.08-1.51,6.56-2.53,13.22-3.77,19.84q-1.19,6.31-2.36,12.63a216.46,216.46,0,0,0-3.68,36.89c-.18,12.53.74,24.8,4.24,36.88,3.58,12.34,10.07,22.48,20.77,29.86,4.53,3.12,9.32,3,14.29,2.09,8.38-1.52,15.62-5.66,22.39-10.5,7.9-5.65,15.75-11.44,23.07-17.8,8-6.89,15.28-14.5,22.84-21.83,3.55-3.44,7-7,10.54-10.43,9.34-9.14,18.8-18.16,28-27.43,5.85-5.87,11.27-12.17,17-18.16,5.27-5.5,10.78-10.77,16.06-16.27,6-6.2,11.73-12.6,17.71-18.78,5-5.22,10.3-10.24,15.47-15.34,4.82-4.76,9.62-9.54,14.48-14.26,5.9-5.74,11.86-11.43,17.78-17.15,3.46-3.33,6.83-6.75,10.35-10,8-7.42,16-14.93,24.27-22.09,7.24-6.27,14.84-12.11,22.3-18.13,3.09-2.48,6.17-5,9.34-7.36q7.26-5.46,14.66-10.75c5.47-3.92,10.77-8.14,16.55-11.54,10.4-6.11,21.08-11.73,31.69-17.49,2.62-1.41,5.51-2.35,8.08-3.83,5.72-3.29,11.8-2.93,17.92-2a9.33,9.33,0,0,1,4.36,2.12c8.37,7,7.94,20.64-1.06,26.78-7.37,5-15.17,9.41-22.66,14.27-6.05,3.93-12,8.06-17.86,12.26q-13.68,9.78-27.22,19.8c-4.52,3.35-8.94,6.87-13.31,10.42-7.05,5.72-14.08,11.45-21,17.32-5.15,4.36-10.06,9-15.16,13.41-4.47,3.86-9.1,7.54-13.58,11.39-3.87,3.33-7.66,6.75-11.42,10.2q-9.13,8.37-18.16,16.83c-3.51,3.28-7.06,6.51-10.43,9.91-8.88,8.94-17.65,18-26.51,27-5.59,5.65-11.42,11.07-16.84,16.88-6.17,6.63-12,13.58-17.94,20.42a8.7,8.7,0,0,0-1,2Zm217.29,92.11.53.44c-.76,1.47-1.57,2.92-2.28,4.42-2.25,4.78-.66,7.47,4.69,7a39.38,39.38,0,0,0,11.53-2.59c8.42-3.42,15.14-9.23,21.11-16.06,7.71-8.83,4.55-18.41-.46-25.47-2.13-3-4.43-3-7.05-.41s-5.36,5.4-7.81,8.29C435.05,316.28,428.35,324.39,421.61,332.55Z" transform="translate(-0.06 0.06)"/></svg>